<?xml version="1.0" encoding="UTF-8" standalone="no"?>
<svg
   width="1200pt"
   height="1200pt"
   version="1.1"
   viewBox="0 0 1200 1200"
   id="svg5"
   sodipodi:docname="canalside-radio.svg"
   xml:space="preserve"
   inkscape:version="1.4.3 (0d15f75, 2025-12-25)"
   xmlns:inkscape="http://www.inkscape.org/namespaces/inkscape"
   xmlns:sodipodi="http://sodipodi.sourceforge.net/DTD/sodipodi-0.dtd"
   xmlns="http://www.w3.org/2000/svg"
   xmlns:svg="http://www.w3.org/2000/svg"><defs
     id="defs5" /><sodipodi:namedview
     id="namedview5"
     pagecolor="#505050"
     bordercolor="#ffffff"
     borderopacity="1"
     inkscape:showpageshadow="0"
     inkscape:pageopacity="0"
     inkscape:pagecheckerboard="1"
     inkscape:deskcolor="#505050"
     inkscape:document-units="pt"
     inkscape:zoom="0.3490625"
     inkscape:cx="1015.5774"
     inkscape:cy="941.09221"
     inkscape:window-width="2256"
     inkscape:window-height="1398"
     inkscape:window-x="-11"
     inkscape:window-y="-11"
     inkscape:window-maximized="1"
     inkscape:current-layer="g11" /><g
     id="g6"
     transform="translate(0,202.68)"><g
       id="g11"
       style="fill:#000031;fill-opacity:1"><path
         d="m 0,253.32 v 744 h 336 l -235.21,-744 z"
         id="path1"
         inkscape:label="path1"
         style="fill:#07192e;fill-opacity:1" /><path
         d="m 864,997.32 h 336 v -744 h -100.78 z"
         id="path2"
         style="fill:#07192e;fill-opacity:1" /></g><g
       id="g5"
       style="fill:#1966b8;fill-opacity:1"><path
         d="m 599.99,989.59 c 49.906,0 83.207,-36.012 133.12,-36.012 24.84,0 51.516,11.508 72.227,20.438 l 28.68,-97.367 c -33.875,-9.8047 -62.484,-31.055 -100.89,-31.055 -49.906,0 -83.195,35.988 -133.12,35.988 v -0.008 c -49.934,0 -83.195,-35.988 -133.12,-35.988 -38.41,0 -67.008,21.254 -100.88,31.055 l 28.68,97.367 c 20.688,-8.9297 47.375,-20.438 72.203,-20.438 49.922,0.004 83.211,36.02 133.11,36.02 z"
         id="path3"
         style="fill:#1966b8;fill-opacity:1" /><path
         d="m 600.01,459.96 c 49.559,0 82.598,-36 132.16,-36 49.57,0 82.609,36 132.17,36 40.906,0 70.691,-24.266 107.68,-32.832 l -37.078,125.15 c -12.191,4.1641 -56.496,15.695 -70.621,15.695 -49.547,0 -82.586,-36.012 -132.16,-36.012 -49.559,0 -82.609,36.012 -132.16,36.012 -49.559,0 -82.598,-36.012 -132.16,-36.012 -49.562,0 -82.609,36.012 -132.17,36.012 -14.113,0 -58.414,-11.52 -70.609,-15.695 l -37.066,-125.15 c 36.984,8.5664 66.742,32.832 107.66,32.832 49.559,0 82.598,-36 132.17,-36 49.559,0 82.586,36 132.16,36 z"
         id="path4"
         style="fill:#1966b8;fill-opacity:1" /><path
         d="m 600.01,670.78 c 49.906,0 83.172,-36.012 133.07,-36.012 49.906,0 83.184,36.012 133.09,36.012 12.098,0 23.207,-2.1016 33.828,-5.2695 l -33.852,113.26 c -49.895,0 -83.16,-35.988 -133.08,-35.988 -49.895,0 -83.172,35.988 -133.07,35.988 -49.895,0 -83.16,-35.988 -133.07,-35.988 -49.91,0 -83.172,35.988 -133.08,35.988 l -33.84,-113.26 c 10.621,3.1797 21.742,5.2695 33.828,5.2695 49.906,0 83.172,-36.012 133.08,-36.012 49.908,0 83.172,36.012 133.07,36.012 z"
         id="path5"
         style="fill:#1966b8;fill-opacity:1" /></g></g><g
     id="g10"><path
       style="stroke-width:0.890528"
       d="m 599.99209,268.72857 c 53.43174,0 103.52399,20.7048 141.59412,58.44096 13.02399,13.02399 13.35793,34.06274 0.33394,47.08673 -6.67896,6.67896 -15.02768,10.01846 -23.71034,10.01846 -8.3487,0 -17.03135,-3.3395 -23.37638,-9.68451 -51.0941,-50.42622 -138.58413,-50.42622 -189.34429,0 -13.02399,13.02398 -34.39668,13.02398 -47.08673,-0.33395 -13.02398,-13.02399 -12.69004,-34.39669 0.33396,-47.08673 37.73616,-37.73616 87.82842,-58.44096 141.25572,-58.44096 z"
       id="path10" /><path
       style="stroke-width:0.890528"
       d="m 788.67738,280.41676 c -50.4262,-50.76017 -117.54985,-78.47787 -188.68529,-78.47787 -71.13546,0 -138.25465,27.7177 -188.68531,78.47787 -13.02398,13.02399 -34.06273,13.02399 -47.08672,0 -13.02398,-13.02398 -13.02398,-34.06274 0,-47.08673 62.7823,-63.4502 146.5989,-98.18082 235.76757,-98.18082 89.16868,0 172.98527,34.73062 236.09706,97.85133 13.024,13.02399 13.024,34.06273 0,47.08672 -6.67897,6.67898 -15.02768,9.6845 -23.71032,9.6845 -8.68266,0 -17.03139,-3.00552 -23.71035,-9.35055 z"
       id="path9" /><path
       style="stroke-width:0.890528"
       d="m 930.6099,185.91381 c -13.02399,13.02399 -34.06273,13.02399 -47.08672,0 C 807.38294,110.10753 706.86002,68.36398 599.99653,68.36398 c -106.86348,0 -207.3864,41.74355 -283.18823,117.54983 -6.67898,6.67897 -15.02768,9.6845 -23.71034,9.6845 -8.68265,0 -17.03138,-3.33947 -23.71034,-9.6845 -13.02398,-13.02398 -13.02398,-34.06273 0,-47.08672 C 357.88395,50.330767 475.09983,1.57875 599.99653,1.57875 c 124.8967,0 242.11705,48.756463 330.60892,136.91884 13.02399,13.02398 13.02399,34.39669 0,47.42067 z"
       id="path8" /></g><path
     id="path7"
     style="stroke-width:0.890528;fill:#a5cdf3;fill-opacity:1"
     d="M 766.97461 469.09717 L 766.97461 469.10156 L 700.18506 469.10156 C 645.08358 469.10156 600.00146 514.18513 600.00146 569.28662 L 600.00146 770.65283 C 571.94978 749.28014 537.55257 736.25684 499.81641 736.25684 C 407.64665 736.25684 332.8418 811.06027 332.8418 903.22998 C 332.8418 995.39979 407.64665 1070.2046 499.81641 1070.2046 C 591.98617 1070.2046 666.79102 995.39979 666.79102 903.22998 L 666.79102 669.46729 L 766.97461 669.46729 C 822.07611 669.46729 867.15967 624.38372 867.15967 569.28223 C 867.15967 514.18075 822.07611 469.09717 766.97461 469.09717 z M 700.18506 535.89111 L 766.97461 535.89111 C 785.34177 535.89111 800.37012 550.91946 800.37012 569.28662 C 800.37012 587.6538 785.34177 602.68213 766.97461 602.68213 L 666.79102 602.68213 L 666.79102 569.28662 C 666.79102 550.91946 681.8179 535.89111 700.18506 535.89111 z M 499.81641 803.05078 C 554.9179 803.05078 600.00146 848.13296 600.00146 903.23438 C 600.00146 958.33591 554.9179 1003.4194 499.81641 1003.4194 C 444.71493 1003.4194 399.63135 958.3359 399.63135 903.23438 C 399.63135 848.13296 444.71493 803.05078 499.81641 803.05078 z " /></svg>
